<svg xmlns="http://www.w3.org/2000/svg" viewBox="0 0 760 520" role="img" aria-labelledby="title desc">
  <title id="title">Liva, mascote do LibrasLive Edu</title>
  <desc id="desc">Mascote 3D estilizada com cabelo azul-marinho, uniforme azul, mao levantada, mao no peito e balao de boas-vindas.</desc>
  <defs>
    <linearGradient id="mintBg" x1="86" x2="690" y1="40" y2="480" gradientUnits="userSpaceOnUse"><stop stop-color="#f7ffff"/><stop offset=".58" stop-color="#e7fbf8"/><stop offset="1" stop-color="#d4f7f3"/></linearGradient>
    <linearGradient id="hair" x1="130" x2="390" y1="24" y2="280" gradientUnits="userSpaceOnUse"><stop stop-color="#233f70"/><stop offset=".5" stop-color="#0c2242"/><stop offset="1" stop-color="#020817"/></linearGradient>
    <linearGradient id="skin" x1="145" x2="330" y1="118" y2="362" gradientUnits="userSpaceOnUse"><stop stop-color="#ffddb8"/><stop offset=".55" stop-color="#f4a66d"/><stop offset="1" stop-color="#de7f48"/></linearGradient>
    <linearGradient id="shirt" x1="142" x2="388" y1="298" y2="520" gradientUnits="userSpaceOnUse"><stop stop-color="#16477c"/><stop offset=".55" stop-color="#0b2d57"/><stop offset="1" stop-color="#061529"/></linearGradient>
    <linearGradient id="hand" x1="34" x2="402" y1="170" y2="498" gradientUnits="userSpaceOnUse"><stop stop-color="#ffdfbd"/><stop offset=".68" stop-color="#f0a065"/><stop offset="1" stop-color="#d97945"/></linearGradient>
    <linearGradient id="bubble" x1="470" x2="730" y1="70" y2="286" gradientUnits="userSpaceOnUse"><stop stop-color="#fff"/><stop offset="1" stop-color="#f8fffe"/></linearGradient>
    <filter id="shadow" x="-20%" y="-20%" width="140%" height="150%"><feDropShadow dx="0" dy="16" stdDeviation="16" flood-color="#0f172a" flood-opacity=".18"/></filter>
  </defs>
  <rect width="760" height="520" fill="#fff"/>
  <path fill="url(#mintBg)" d="M38 190c80-128 207-123 302-92 93 30 126-25 218-28 90-2 160 58 168 155 10 122-72 238-210 249-115 9-170-43-259-35-91 8-164 63-232-15-57-65-44-157 13-234Z" opacity=".85"/>
  <g filter="url(#shadow)">
    <path fill="url(#bubble)" stroke="#e0f7f4" stroke-width="2" d="M478 77h185c39 0 70 31 70 70v75c0 39-31 70-70 70h-98l-58 48c-11 9-27 1-25-13l7-45c-31-12-52-42-52-76v-59c0-39 31-70 70-70Z"/>
    <text x="505" y="163" fill="#0b2448" font-family="Arial, sans-serif" font-size="40" font-weight="800">Seja</text>
    <text x="505" y="217" fill="#0d9488" font-family="Arial, sans-serif" font-size="40" font-weight="800">bem-vindo!</text>
    <path d="M508 251h74" stroke="#10b9ad" stroke-linecap="round" stroke-width="8"/>
  </g>
  <g fill="none" stroke="#10b9ad" stroke-linecap="round" stroke-width="11"><path d="M675 60c29 18 47 48 47 84"/><path d="M650 91c18 12 29 31 29 54"/></g>
  <g opacity=".32" fill="#7ddbd3">
    <circle cx="500" cy="350" r="4"/><circle cx="522" cy="350" r="4"/><circle cx="544" cy="350" r="4"/><circle cx="566" cy="350" r="4"/><circle cx="588" cy="350" r="4"/>
    <circle cx="500" cy="372" r="4"/><circle cx="522" cy="372" r="4"/><circle cx="544" cy="372" r="4"/><circle cx="566" cy="372" r="4"/><circle cx="588" cy="372" r="4"/>
    <circle cx="500" cy="394" r="4"/><circle cx="522" cy="394" r="4"/><circle cx="544" cy="394" r="4"/><circle cx="566" cy="394" r="4"/><circle cx="588" cy="394" r="4"/>
    <circle cx="500" cy="416" r="4"/><circle cx="522" cy="416" r="4"/><circle cx="544" cy="416" r="4"/><circle cx="566" cy="416" r="4"/><circle cx="588" cy="416" r="4"/>
  </g>
  <g filter="url(#shadow)">
    <path fill="url(#shirt)" d="M116 520c8-118 65-199 154-199h13c91 0 149 81 158 199H116Z"/>
    <path fill="#16b8aa" d="M184 331h184l-91 75-93-75Z"/>
    <path fill="#061a34" d="M208 334c13 44 37 79 70 103 32-24 56-59 69-103H208Z"/>
    <path d="M179 381h194" stroke="#11b9ad" stroke-linecap="round" stroke-width="9"/>
    <circle cx="392" cy="392" r="31" fill="#0d9488"/>
    <path d="M374 393c0-17 13-31 30-31 8 0 16 3 21 9M424 405c-8 8-19 13-31 13h-11l-18 12 6-20" fill="none" stroke="#fff" stroke-linecap="round" stroke-linejoin="round" stroke-width="6"/>
    <path d="M392 386v-23M406 392v-24M419 397v-20" stroke="#fff" stroke-linecap="round" stroke-width="5"/>
  </g>
  <g filter="url(#shadow)">
    <path fill="url(#hair)" d="M113 229c-18-89 42-185 143-199 84-12 153 38 170 120 16 78-28 150-91 179-30 14-76 9-105-2-75-29-107-30-117-98Z"/>
    <path fill="#223f70" d="M120 183c29-82 92-133 184-142 47-5 92 14 118 48-52-4-99 11-142 44-50 38-98 55-160 50Z" opacity=".88"/>
    <path fill="url(#skin)" stroke="#8b4a2b" stroke-opacity=".12" stroke-width="2" d="M156 178c0-66 51-121 119-121s121 55 121 121v45c0 68-53 123-121 123s-119-55-119-123v-45Z"/>
    <path fill="url(#hair)" d="M142 160c21-75 79-123 168-139 51 24 89 64 105 127-67-35-126-28-179 12-26 20-55 24-94 0Z"/>
    <path d="M196 178c19-12 42-12 60 0M292 178c20-12 43-12 61 0" stroke="#06152b" stroke-linecap="round" stroke-width="7"/>
    <circle cx="222" cy="206" r="16" fill="#071f3d"/><circle cx="322" cy="206" r="16" fill="#071f3d"/><circle cx="228" cy="199" r="5" fill="#fff"/><circle cx="328" cy="199" r="5" fill="#fff"/>
    <path d="M245 262c22 22 56 22 78 0" fill="none" stroke="#7c2d12" stroke-linecap="round" stroke-width="8"/>
    <path d="M257 276c16 8 38 8 54 0" fill="none" stroke="#fff" stroke-linecap="round" stroke-width="4"/>
    <circle cx="146" cy="217" r="18" fill="#e9945f"/><circle cx="404" cy="217" r="18" fill="#e9945f"/><circle cx="135" cy="229" r="8" fill="#0d9488"/><circle cx="417" cy="229" r="8" fill="#0d9488"/>
  </g>
  <g filter="url(#shadow)">
    <path fill="url(#hand)" d="M55 360c-32-25-51-65-51-108v-65c0-18 14-32 32-32s32 14 32 32v78-116c0-18 14-32 32-32s32 14 32 32v115-98c0-18 14-32 32-32s32 14 32 32v111-63c0-18 14-32 32-32s32 14 32 32v69c0 89-67 161-151 161-35 0-67-12-94-34Z"/>
    <path d="M68 266v-116M133 265V132M197 280V169M256 299v-82" stroke="#c86f3d" stroke-linecap="round" stroke-width="5" opacity=".44"/>
    <path fill="url(#hand)" d="M288 405c30-16 63-39 99-68 15-12 38-10 51 6 13 16 10 40-7 53l-78 61c-38 30-89 37-133 18l-62-26c-19-8-28-31-19-50 8-20 31-29 50-20l61 26c13 6 26 6 38 0Z"/>
    <path d="M225 438c61 27 122-10 187-65" stroke="#c86f3d" stroke-linecap="round" stroke-width="5" opacity=".42"/>
  </g>
</svg>
