<svg xmlns="http://www.w3.org/2000/svg" viewBox="0 0 512 512" role="img" aria-labelledby="title desc">
  <title id="title">Ícone LibrasLive Edu</title>
  <desc id="desc">Ícone com mão em Libras dentro de balão de fala, arco mint e ondas ao vivo.</desc>
  <defs>
    <linearGradient id="bg" x1="82" x2="430" y1="70" y2="448" gradientUnits="userSpaceOnUse">
      <stop stop-color="#183a68"/>
      <stop offset=".58" stop-color="#0b2a52"/>
      <stop offset="1" stop-color="#061a35"/>
    </linearGradient>
    <linearGradient id="mint" x1="104" x2="398" y1="104" y2="366" gradientUnits="userSpaceOnUse">
      <stop stop-color="#7cf8e9"/>
      <stop offset="1" stop-color="#13b8aa"/>
    </linearGradient>
    <filter id="shadow" x="-18%" y="-18%" width="136%" height="150%">
      <feDropShadow dx="0" dy="18" stdDeviation="18" flood-color="#020817" flood-opacity=".30"/>
    </filter>
  </defs>
  <rect x="52" y="52" width="408" height="408" rx="96" fill="url(#bg)" filter="url(#shadow)"/>
  <path d="M143 255c0-73 59-132 132-132 26 0 51 8 72 22" fill="none" stroke="url(#mint)" stroke-linecap="round" stroke-width="28"/>
  <path d="M372 247c23 37 18 85-12 119-31 36-82 50-129 36h-39l-62 44 17-65c-29-31-44-73-38-116" fill="none" stroke="#fff" stroke-linecap="round" stroke-linejoin="round" stroke-width="28"/>
  <path fill="#fff" stroke="#e5edf7" stroke-width="4" d="M174 257v-78c0-15 12-27 27-27s27 12 27 27v57-76c0-15 12-27 27-27s27 12 27 27v78-61c0-15 12-27 27-27s27 12 27 27v92c0 58-47 105-105 105h-14c-44 0-80-36-80-80v-27c0-15 12-27 27-27 5 0 9 1 13 3Z"/>
  <path d="M202 255v-95M255 237v-91M309 244v-77" stroke="#cbd5e1" stroke-linecap="round" stroke-width="7"/>
  <path d="M360 123c28 19 44 49 44 84M323 148c17 12 27 31 27 53" fill="none" stroke="url(#mint)" stroke-linecap="round" stroke-width="19"/>
</svg>
