<svg xmlns="http://www.w3.org/2000/svg" viewBox="0 0 512 512">
  <defs>
    <linearGradient id="bg" x1="0" x2="512" y1="0" y2="512" gradientUnits="userSpaceOnUse"><stop stop-color="#1d3e70"/><stop offset=".56" stop-color="#0a2a52"/><stop offset="1" stop-color="#061a34"/></linearGradient>
    <linearGradient id="mint" x1="130" x2="383" y1="115" y2="333" gradientUnits="userSpaceOnUse"><stop stop-color="#81fff0"/><stop offset="1" stop-color="#10b9ad"/></linearGradient>
  </defs>
  <rect width="512" height="512" fill="url(#bg)"/>
  <path d="M140 255c0-71 58-129 129-129 26 0 50 8 70 21" fill="none" stroke="url(#mint)" stroke-linecap="round" stroke-width="25"/>
  <path d="M357 236c25 39 20 89-12 124-32 36-83 49-129 35h-30l-67 48 19-68c-25-31-38-70-33-111" fill="none" stroke="#fff" stroke-linecap="round" stroke-linejoin="round" stroke-width="25"/>
  <path fill="#fff" stroke="#e7eef7" stroke-width="3" d="M172 258v-82c0-14 11-25 25-25s25 11 25 25v61-84c0-14 11-25 25-25s25 11 25 25v85-67c0-14 11-25 25-25s25 11 25 25v98c0 57-46 103-103 103h-10c-44 0-79-35-79-79v-30c0-14 11-25 25-25 6 0 12 2 17 6Z"/>
  <path d="M356 124c27 18 43 48 43 82M321 149c16 12 26 30 26 51" fill="none" stroke="url(#mint)" stroke-linecap="round" stroke-width="18"/>
</svg>
